<mxfile host="Electron" modified="2023-12-10T05:21:28.555Z" agent="Mozilla/5.0 (X11; Linux x86_64) AppleWebKit/537.36 (KHTML, like Gecko) draw.io/22.1.2 Chrome/114.0.5735.289 Electron/25.9.4 Safari/537.36" etag="2z7YsCCidomQhmRLnt_p" version="22.1.2" type="device">
  <diagram name="第 1 页" id="ydRHRouhvx54ArjkyRwV">
    <mxGraphModel dx="1231" dy="767" grid="1" gridSize="10" guides="1" tooltips="1" connect="1" arrows="1" fold="1" page="1" pageScale="1" pageWidth="1169" pageHeight="1654" math="0" shadow="0">
      <root>
        <mxCell id="0" />
        <mxCell id="1" parent="0" />
        <mxCell id="yDTgXF9lxVvC0tkeASpY-1" value="001" style="shape=ellipse;html=1;dashed=0;whiteSpace=wrap;aspect=fixed;perimeter=ellipsePerimeter;" parent="1" vertex="1">
          <mxGeometry x="180" y="210" width="60" height="60" as="geometry" />
        </mxCell>
        <mxCell id="yDTgXF9lxVvC0tkeASpY-2" value="" style="endArrow=classic;html=1;rounded=0;entryX=0;entryY=0.5;entryDx=0;entryDy=0;" parent="1" target="yDTgXF9lxVvC0tkeASpY-1" edge="1">
          <mxGeometry width="50" height="50" relative="1" as="geometry">
            <mxPoint x="110" y="240" as="sourcePoint" />
            <mxPoint x="90" y="230" as="targetPoint" />
          </mxGeometry>
        </mxCell>
        <mxCell id="yDTgXF9lxVvC0tkeASpY-7" value="start" style="edgeLabel;html=1;align=right;verticalAlign=middle;resizable=0;points=[];fontSize=16;spacingLeft=0;spacingRight=27;" parent="yDTgXF9lxVvC0tkeASpY-2" vertex="1" connectable="0">
          <mxGeometry x="-0.3714" y="1" relative="1" as="geometry">
            <mxPoint as="offset" />
          </mxGeometry>
        </mxCell>
        <mxCell id="yDTgXF9lxVvC0tkeASpY-8" value="101" style="shape=ellipse;html=1;dashed=0;whiteSpace=wrap;aspect=fixed;perimeter=ellipsePerimeter;" parent="1" vertex="1">
          <mxGeometry x="330" y="210" width="60" height="60" as="geometry" />
        </mxCell>
        <mxCell id="yDTgXF9lxVvC0tkeASpY-13" value="" style="endArrow=classic;html=1;rounded=0;exitX=1;exitY=0.5;exitDx=0;exitDy=0;" parent="1" source="yDTgXF9lxVvC0tkeASpY-1" edge="1">
          <mxGeometry width="50" height="50" relative="1" as="geometry">
            <mxPoint x="280" y="250" as="sourcePoint" />
            <mxPoint x="330" y="240" as="targetPoint" />
          </mxGeometry>
        </mxCell>
        <mxCell id="yDTgXF9lxVvC0tkeASpY-14" value="#" style="edgeLabel;html=1;align=center;verticalAlign=bottom;resizable=0;points=[];fontSize=16;" parent="yDTgXF9lxVvC0tkeASpY-13" vertex="1" connectable="0">
          <mxGeometry x="0.0444" y="1" relative="1" as="geometry">
            <mxPoint as="offset" />
          </mxGeometry>
        </mxCell>
        <mxCell id="yDTgXF9lxVvC0tkeASpY-15" value="注释（comment）" style="text;strokeColor=none;fillColor=none;align=left;verticalAlign=middle;spacingLeft=4;spacingRight=4;overflow=hidden;points=[[0,0.5],[1,0.5]];portConstraint=eastwest;rotatable=0;whiteSpace=wrap;html=1;fontSize=18;fontFamily=Helvetica;" parent="1" vertex="1">
          <mxGeometry x="40" y="40" width="180" height="30" as="geometry" />
        </mxCell>
        <mxCell id="yDTgXF9lxVvC0tkeASpY-17" value="" style="endArrow=classic;html=1;rounded=0;exitX=1;exitY=0.5;exitDx=0;exitDy=0;" parent="1" edge="1">
          <mxGeometry width="50" height="50" relative="1" as="geometry">
            <mxPoint x="390" y="239.58000000000004" as="sourcePoint" />
            <mxPoint x="480" y="239.58000000000004" as="targetPoint" />
          </mxGeometry>
        </mxCell>
        <mxCell id="yDTgXF9lxVvC0tkeASpY-18" value="\n" style="edgeLabel;html=1;align=center;verticalAlign=bottom;resizable=0;points=[];fontSize=16;" parent="yDTgXF9lxVvC0tkeASpY-17" vertex="1" connectable="0">
          <mxGeometry x="0.0444" y="1" relative="1" as="geometry">
            <mxPoint as="offset" />
          </mxGeometry>
        </mxCell>
        <mxCell id="yDTgXF9lxVvC0tkeASpY-19" value="102" style="ellipse;shape=doubleEllipse;html=1;dashed=0;whiteSpace=wrap;aspect=fixed;" parent="1" vertex="1">
          <mxGeometry x="480" y="210" width="60" height="60" as="geometry" />
        </mxCell>
        <mxCell id="yDTgXF9lxVvC0tkeASpY-20" value="祼键" style="text;strokeColor=none;fillColor=none;align=left;verticalAlign=middle;spacingLeft=4;spacingRight=4;overflow=hidden;points=[[0,0.5],[1,0.5]];portConstraint=eastwest;rotatable=0;whiteSpace=wrap;html=1;fontSize=18;fontFamily=Helvetica;" parent="1" vertex="1">
          <mxGeometry x="580" y="40" width="180" height="30" as="geometry" />
        </mxCell>
        <mxCell id="yDTgXF9lxVvC0tkeASpY-21" value="001" style="shape=ellipse;html=1;dashed=0;whiteSpace=wrap;aspect=fixed;perimeter=ellipsePerimeter;" parent="1" vertex="1">
          <mxGeometry x="710" y="210" width="60" height="60" as="geometry" />
        </mxCell>
        <mxCell id="yDTgXF9lxVvC0tkeASpY-22" value="" style="endArrow=classic;html=1;rounded=0;entryX=0;entryY=0.5;entryDx=0;entryDy=0;" parent="1" target="yDTgXF9lxVvC0tkeASpY-21" edge="1">
          <mxGeometry width="50" height="50" relative="1" as="geometry">
            <mxPoint x="670" y="240" as="sourcePoint" />
            <mxPoint x="650" y="230" as="targetPoint" />
          </mxGeometry>
        </mxCell>
        <mxCell id="yDTgXF9lxVvC0tkeASpY-23" value="start" style="edgeLabel;html=1;align=right;verticalAlign=middle;resizable=0;points=[];fontSize=16;spacingLeft=0;spacingRight=27;" parent="yDTgXF9lxVvC0tkeASpY-22" vertex="1" connectable="0">
          <mxGeometry x="-0.3714" y="1" relative="1" as="geometry">
            <mxPoint as="offset" />
          </mxGeometry>
        </mxCell>
        <mxCell id="yDTgXF9lxVvC0tkeASpY-26" value="201" style="shape=ellipse;html=1;dashed=0;whiteSpace=wrap;aspect=fixed;perimeter=ellipsePerimeter;" parent="1" vertex="1">
          <mxGeometry x="870" y="210" width="60" height="60" as="geometry" />
        </mxCell>
        <mxCell id="yDTgXF9lxVvC0tkeASpY-29" value="" style="endArrow=classic;html=1;rounded=0;exitX=1;exitY=0.5;exitDx=0;exitDy=0;entryX=0;entryY=0.5;entryDx=0;entryDy=0;" parent="1" source="yDTgXF9lxVvC0tkeASpY-21" target="yDTgXF9lxVvC0tkeASpY-26" edge="1">
          <mxGeometry width="50" height="50" relative="1" as="geometry">
            <mxPoint x="810" y="250" as="sourcePoint" />
            <mxPoint x="860" y="240" as="targetPoint" />
          </mxGeometry>
        </mxCell>
        <mxCell id="yDTgXF9lxVvC0tkeASpY-30" value="letter, -, _" style="edgeLabel;html=1;align=center;verticalAlign=bottom;resizable=0;points=[];fontSize=16;" parent="yDTgXF9lxVvC0tkeASpY-29" vertex="1" connectable="0">
          <mxGeometry x="0.0444" y="1" relative="1" as="geometry">
            <mxPoint as="offset" />
          </mxGeometry>
        </mxCell>
        <mxCell id="yDTgXF9lxVvC0tkeASpY-31" value="" style="endArrow=classic;html=1;rounded=0;exitX=1;exitY=0.5;exitDx=0;exitDy=0;entryX=0;entryY=0.5;entryDx=0;entryDy=0;" parent="1" target="yDTgXF9lxVvC0tkeASpY-33" edge="1">
          <mxGeometry width="50" height="50" relative="1" as="geometry">
            <mxPoint x="930" y="239.58000000000004" as="sourcePoint" />
            <mxPoint x="1080" y="240" as="targetPoint" />
          </mxGeometry>
        </mxCell>
        <mxCell id="yDTgXF9lxVvC0tkeASpY-32" value="character that are&lt;br&gt;not letter, _, digit, -" style="edgeLabel;html=1;align=center;verticalAlign=bottom;resizable=0;points=[];fontSize=16;" parent="yDTgXF9lxVvC0tkeASpY-31" vertex="1" connectable="0">
          <mxGeometry x="0.0444" y="1" relative="1" as="geometry">
            <mxPoint x="-8" as="offset" />
          </mxGeometry>
        </mxCell>
        <mxCell id="yDTgXF9lxVvC0tkeASpY-33" value="202" style="ellipse;shape=doubleEllipse;html=1;dashed=0;whiteSpace=wrap;aspect=fixed;" parent="1" vertex="1">
          <mxGeometry x="1090" y="210" width="60" height="60" as="geometry" />
        </mxCell>
        <mxCell id="1reYvSgFalXxQbGU-dyz-1" value="等号（=）" style="text;strokeColor=none;fillColor=none;align=left;verticalAlign=middle;spacingLeft=4;spacingRight=4;overflow=hidden;points=[[0,0.5],[1,0.5]];portConstraint=eastwest;rotatable=0;whiteSpace=wrap;html=1;fontSize=18;fontFamily=Helvetica;" parent="1" vertex="1">
          <mxGeometry x="40" y="330" width="180" height="30" as="geometry" />
        </mxCell>
        <mxCell id="1reYvSgFalXxQbGU-dyz-2" value="001" style="shape=ellipse;html=1;dashed=0;whiteSpace=wrap;aspect=fixed;perimeter=ellipsePerimeter;" parent="1" vertex="1">
          <mxGeometry x="190" y="440" width="60" height="60" as="geometry" />
        </mxCell>
        <mxCell id="1reYvSgFalXxQbGU-dyz-3" value="" style="endArrow=classic;html=1;rounded=0;entryX=0;entryY=0.5;entryDx=0;entryDy=0;" parent="1" target="1reYvSgFalXxQbGU-dyz-2" edge="1">
          <mxGeometry width="50" height="50" relative="1" as="geometry">
            <mxPoint x="120" y="470" as="sourcePoint" />
            <mxPoint x="100" y="460" as="targetPoint" />
          </mxGeometry>
        </mxCell>
        <mxCell id="1reYvSgFalXxQbGU-dyz-4" value="start" style="edgeLabel;html=1;align=right;verticalAlign=middle;resizable=0;points=[];fontSize=16;spacingLeft=0;spacingRight=27;" parent="1reYvSgFalXxQbGU-dyz-3" vertex="1" connectable="0">
          <mxGeometry x="-0.3714" y="1" relative="1" as="geometry">
            <mxPoint as="offset" />
          </mxGeometry>
        </mxCell>
        <mxCell id="1reYvSgFalXxQbGU-dyz-10" value="" style="endArrow=classic;html=1;rounded=0;exitX=1;exitY=0.5;exitDx=0;exitDy=0;" parent="1" source="1reYvSgFalXxQbGU-dyz-2" edge="1">
          <mxGeometry width="50" height="50" relative="1" as="geometry">
            <mxPoint x="290" y="480" as="sourcePoint" />
            <mxPoint x="300" y="470" as="targetPoint" />
          </mxGeometry>
        </mxCell>
        <mxCell id="1reYvSgFalXxQbGU-dyz-11" value="=" style="edgeLabel;html=1;align=center;verticalAlign=bottom;resizable=0;points=[];fontSize=16;" parent="1reYvSgFalXxQbGU-dyz-10" vertex="1" connectable="0">
          <mxGeometry x="0.0444" y="1" relative="1" as="geometry">
            <mxPoint as="offset" />
          </mxGeometry>
        </mxCell>
        <mxCell id="1reYvSgFalXxQbGU-dyz-14" value="302" style="ellipse;shape=doubleEllipse;html=1;dashed=0;whiteSpace=wrap;aspect=fixed;" parent="1" vertex="1">
          <mxGeometry x="410" y="440" width="60" height="60" as="geometry" />
        </mxCell>
        <mxCell id="kXEB3z6f9b4JCnpc9aBb-1" value="" style="curved=1;endArrow=classic;html=1;rounded=0;" parent="1" edge="1">
          <mxGeometry width="50" height="50" relative="1" as="geometry">
            <mxPoint x="735" y="210" as="sourcePoint" />
            <mxPoint x="745" y="210" as="targetPoint" />
            <Array as="points">
              <mxPoint x="730" y="190" />
              <mxPoint x="740" y="170" />
              <mxPoint x="750" y="190" />
            </Array>
          </mxGeometry>
        </mxCell>
        <mxCell id="kXEB3z6f9b4JCnpc9aBb-2" value="&lt;font style=&quot;font-size: 16px;&quot;&gt;space,&lt;br&gt;\t, \n, \r&lt;/font&gt;" style="edgeLabel;html=1;align=center;verticalAlign=middle;resizable=0;points=[];" parent="kXEB3z6f9b4JCnpc9aBb-1" vertex="1" connectable="0">
          <mxGeometry x="-0.1093" y="-2" relative="1" as="geometry">
            <mxPoint y="-21" as="offset" />
          </mxGeometry>
        </mxCell>
        <mxCell id="-TnN5JCZgHY5600e-ZZc-1" value="" style="curved=1;endArrow=classic;html=1;rounded=0;" parent="1" edge="1">
          <mxGeometry width="50" height="50" relative="1" as="geometry">
            <mxPoint x="895" y="210" as="sourcePoint" />
            <mxPoint x="905" y="210" as="targetPoint" />
            <Array as="points">
              <mxPoint x="890" y="190" />
              <mxPoint x="900" y="170" />
              <mxPoint x="910" y="190" />
            </Array>
          </mxGeometry>
        </mxCell>
        <mxCell id="-TnN5JCZgHY5600e-ZZc-2" value="&lt;font style=&quot;font-size: 16px;&quot;&gt;letter, _,&lt;br&gt;digit, -&lt;/font&gt;" style="edgeLabel;html=1;align=center;verticalAlign=middle;resizable=0;points=[];" parent="-TnN5JCZgHY5600e-ZZc-1" vertex="1" connectable="0">
          <mxGeometry x="-0.1093" y="-2" relative="1" as="geometry">
            <mxPoint y="-21" as="offset" />
          </mxGeometry>
        </mxCell>
        <mxCell id="YWwLurKodPm_dzBVVLT7-1" value="" style="curved=1;endArrow=classic;html=1;rounded=0;" parent="1" edge="1">
          <mxGeometry width="50" height="50" relative="1" as="geometry">
            <mxPoint x="205" y="210" as="sourcePoint" />
            <mxPoint x="215" y="210" as="targetPoint" />
            <Array as="points">
              <mxPoint x="200" y="190" />
              <mxPoint x="210" y="170" />
              <mxPoint x="220" y="190" />
            </Array>
          </mxGeometry>
        </mxCell>
        <mxCell id="YWwLurKodPm_dzBVVLT7-2" value="&lt;font style=&quot;font-size: 16px;&quot;&gt;space,&lt;br&gt;\t, \n, \r&lt;/font&gt;" style="edgeLabel;html=1;align=center;verticalAlign=middle;resizable=0;points=[];" parent="YWwLurKodPm_dzBVVLT7-1" vertex="1" connectable="0">
          <mxGeometry x="-0.1093" y="-2" relative="1" as="geometry">
            <mxPoint y="-21" as="offset" />
          </mxGeometry>
        </mxCell>
        <mxCell id="YWwLurKodPm_dzBVVLT7-3" value="" style="curved=1;endArrow=classic;html=1;rounded=0;spacing=0;verticalAlign=middle;" parent="1" edge="1">
          <mxGeometry width="50" height="50" relative="1" as="geometry">
            <mxPoint x="355" y="210" as="sourcePoint" />
            <mxPoint x="365" y="210" as="targetPoint" />
            <Array as="points">
              <mxPoint x="350" y="190" />
              <mxPoint x="360" y="170" />
              <mxPoint x="370" y="190" />
            </Array>
          </mxGeometry>
        </mxCell>
        <mxCell id="YWwLurKodPm_dzBVVLT7-4" value="&lt;font style=&quot;font-size: 16px;&quot;&gt;characters containing&lt;br style=&quot;border-color: var(--border-color);&quot;&gt;tabs but no other control&lt;br style=&quot;border-color: var(--border-color);&quot;&gt;characters(\0x00~\0x08,&lt;br style=&quot;border-color: var(--border-color);&quot;&gt;\0x0A~\0x1f, \0x7F)&lt;/font&gt;" style="edgeLabel;html=1;align=center;verticalAlign=middle;resizable=0;points=[];" parent="YWwLurKodPm_dzBVVLT7-3" vertex="1" connectable="0">
          <mxGeometry x="-0.1093" y="-2" relative="1" as="geometry">
            <mxPoint y="-45" as="offset" />
          </mxGeometry>
        </mxCell>
        <mxCell id="jTsITOciqbAImkjD2ael-2" value="" style="curved=1;endArrow=classic;html=1;rounded=0;" parent="1" edge="1">
          <mxGeometry width="50" height="50" relative="1" as="geometry">
            <mxPoint x="215" y="440" as="sourcePoint" />
            <mxPoint x="225" y="440" as="targetPoint" />
            <Array as="points">
              <mxPoint x="210" y="420" />
              <mxPoint x="220" y="400" />
              <mxPoint x="230" y="420" />
            </Array>
          </mxGeometry>
        </mxCell>
        <mxCell id="jTsITOciqbAImkjD2ael-3" value="&lt;font style=&quot;font-size: 16px;&quot;&gt;space,&lt;br&gt;\t, \n, \r&lt;/font&gt;" style="edgeLabel;html=1;align=center;verticalAlign=middle;resizable=0;points=[];" parent="jTsITOciqbAImkjD2ael-2" vertex="1" connectable="0">
          <mxGeometry x="-0.1093" y="-2" relative="1" as="geometry">
            <mxPoint y="-21" as="offset" />
          </mxGeometry>
        </mxCell>
        <mxCell id="MsgvqJ762t6YQcJP-yqz-20" value="字符串" style="text;strokeColor=none;fillColor=none;align=left;verticalAlign=middle;spacingLeft=4;spacingRight=4;overflow=hidden;points=[[0,0.5],[1,0.5]];portConstraint=eastwest;rotatable=0;whiteSpace=wrap;html=1;fontSize=18;fontFamily=Helvetica;" parent="1" vertex="1">
          <mxGeometry x="40" y="600" width="180" height="30" as="geometry" />
        </mxCell>
        <mxCell id="MsgvqJ762t6YQcJP-yqz-21" value="001" style="shape=ellipse;html=1;dashed=0;whiteSpace=wrap;aspect=fixed;perimeter=ellipsePerimeter;" parent="1" vertex="1">
          <mxGeometry x="190" y="740" width="60" height="60" as="geometry" />
        </mxCell>
        <mxCell id="MsgvqJ762t6YQcJP-yqz-22" value="" style="endArrow=classic;html=1;rounded=0;entryX=0;entryY=0.5;entryDx=0;entryDy=0;" parent="1" target="MsgvqJ762t6YQcJP-yqz-21" edge="1">
          <mxGeometry width="50" height="50" relative="1" as="geometry">
            <mxPoint x="120" y="770" as="sourcePoint" />
            <mxPoint x="100" y="760" as="targetPoint" />
          </mxGeometry>
        </mxCell>
        <mxCell id="MsgvqJ762t6YQcJP-yqz-23" value="start" style="edgeLabel;html=1;align=right;verticalAlign=middle;resizable=0;points=[];fontSize=16;spacingLeft=0;spacingRight=27;" parent="MsgvqJ762t6YQcJP-yqz-22" vertex="1" connectable="0">
          <mxGeometry x="-0.3714" y="1" relative="1" as="geometry">
            <mxPoint as="offset" />
          </mxGeometry>
        </mxCell>
        <mxCell id="MsgvqJ762t6YQcJP-yqz-24" value="501" style="shape=ellipse;html=1;dashed=0;whiteSpace=wrap;aspect=fixed;perimeter=ellipsePerimeter;" parent="1" vertex="1">
          <mxGeometry x="340" y="740" width="60" height="60" as="geometry" />
        </mxCell>
        <mxCell id="MsgvqJ762t6YQcJP-yqz-25" value="" style="endArrow=classic;html=1;rounded=0;exitX=1;exitY=0.5;exitDx=0;exitDy=0;" parent="1" source="MsgvqJ762t6YQcJP-yqz-21" edge="1">
          <mxGeometry width="50" height="50" relative="1" as="geometry">
            <mxPoint x="290" y="780" as="sourcePoint" />
            <mxPoint x="340" y="770" as="targetPoint" />
          </mxGeometry>
        </mxCell>
        <mxCell id="MsgvqJ762t6YQcJP-yqz-26" value="“" style="edgeLabel;html=1;align=center;verticalAlign=bottom;resizable=0;points=[];fontSize=16;" parent="MsgvqJ762t6YQcJP-yqz-25" vertex="1" connectable="0">
          <mxGeometry x="0.0444" y="1" relative="1" as="geometry">
            <mxPoint as="offset" />
          </mxGeometry>
        </mxCell>
        <mxCell id="MsgvqJ762t6YQcJP-yqz-27" value="" style="endArrow=classic;html=1;rounded=0;exitX=1;exitY=0.5;exitDx=0;exitDy=0;entryX=0;entryY=0.5;entryDx=0;entryDy=0;" parent="1" target="MsgvqJ762t6YQcJP-yqz-29" edge="1">
          <mxGeometry width="50" height="50" relative="1" as="geometry">
            <mxPoint x="400" y="769.58" as="sourcePoint" />
            <mxPoint x="550" y="770" as="targetPoint" />
          </mxGeometry>
        </mxCell>
        <mxCell id="MsgvqJ762t6YQcJP-yqz-28" value="”" style="edgeLabel;html=1;align=center;verticalAlign=bottom;resizable=0;points=[];fontSize=16;" parent="MsgvqJ762t6YQcJP-yqz-27" vertex="1" connectable="0">
          <mxGeometry x="0.0444" y="1" relative="1" as="geometry">
            <mxPoint as="offset" />
          </mxGeometry>
        </mxCell>
        <mxCell id="MsgvqJ762t6YQcJP-yqz-29" value="503" style="ellipse;shape=doubleEllipse;html=1;dashed=0;whiteSpace=wrap;aspect=fixed;" parent="1" vertex="1">
          <mxGeometry x="490" y="740" width="60" height="60" as="geometry" />
        </mxCell>
        <mxCell id="MsgvqJ762t6YQcJP-yqz-30" value="" style="curved=1;endArrow=classic;html=1;rounded=0;" parent="1" edge="1">
          <mxGeometry width="50" height="50" relative="1" as="geometry">
            <mxPoint x="215" y="740" as="sourcePoint" />
            <mxPoint x="225" y="740" as="targetPoint" />
            <Array as="points">
              <mxPoint x="210" y="720" />
              <mxPoint x="220" y="700" />
              <mxPoint x="230" y="720" />
            </Array>
          </mxGeometry>
        </mxCell>
        <mxCell id="MsgvqJ762t6YQcJP-yqz-31" value="&lt;font style=&quot;font-size: 16px;&quot;&gt;space,&lt;br&gt;\t, \n, \r&lt;/font&gt;" style="edgeLabel;html=1;align=center;verticalAlign=middle;resizable=0;points=[];" parent="MsgvqJ762t6YQcJP-yqz-30" vertex="1" connectable="0">
          <mxGeometry x="-0.1093" y="-2" relative="1" as="geometry">
            <mxPoint y="-21" as="offset" />
          </mxGeometry>
        </mxCell>
        <mxCell id="MsgvqJ762t6YQcJP-yqz-32" value="" style="curved=1;endArrow=classic;html=1;rounded=0;" parent="1" edge="1">
          <mxGeometry width="50" height="50" relative="1" as="geometry">
            <mxPoint x="365" y="740" as="sourcePoint" />
            <mxPoint x="375" y="740" as="targetPoint" />
            <Array as="points">
              <mxPoint x="360" y="720" />
              <mxPoint x="370" y="700" />
              <mxPoint x="380" y="720" />
            </Array>
          </mxGeometry>
        </mxCell>
        <mxCell id="MsgvqJ762t6YQcJP-yqz-33" value="&lt;span style=&quot;font-size: 16px;&quot;&gt;character that are not&lt;br&gt;&quot;, \, \x0~\x8,&lt;br&gt;\xA~\x1F, \x7F&lt;br&gt;&lt;/span&gt;" style="edgeLabel;html=1;align=center;verticalAlign=middle;resizable=0;points=[];" parent="MsgvqJ762t6YQcJP-yqz-32" vertex="1" connectable="0">
          <mxGeometry x="-0.1093" y="-2" relative="1" as="geometry">
            <mxPoint y="-35" as="offset" />
          </mxGeometry>
        </mxCell>
        <mxCell id="MsgvqJ762t6YQcJP-yqz-34" value="502" style="shape=ellipse;html=1;dashed=0;whiteSpace=wrap;aspect=fixed;perimeter=ellipsePerimeter;" parent="1" vertex="1">
          <mxGeometry x="340" y="850" width="60" height="60" as="geometry" />
        </mxCell>
        <mxCell id="MsgvqJ762t6YQcJP-yqz-35" value="" style="curved=1;endArrow=classic;html=1;rounded=0;exitX=0;exitY=1;exitDx=0;exitDy=0;entryX=0;entryY=0;entryDx=0;entryDy=0;" parent="1" source="MsgvqJ762t6YQcJP-yqz-24" target="MsgvqJ762t6YQcJP-yqz-34" edge="1">
          <mxGeometry width="50" height="50" relative="1" as="geometry">
            <mxPoint x="260" y="880" as="sourcePoint" />
            <mxPoint x="310" y="830" as="targetPoint" />
            <Array as="points">
              <mxPoint x="320" y="820" />
            </Array>
          </mxGeometry>
        </mxCell>
        <mxCell id="MsgvqJ762t6YQcJP-yqz-36" value="\&amp;nbsp;" style="edgeLabel;html=1;align=right;verticalAlign=middle;resizable=0;points=[];" parent="MsgvqJ762t6YQcJP-yqz-35" vertex="1" connectable="0">
          <mxGeometry x="0.1309" y="7" relative="1" as="geometry">
            <mxPoint as="offset" />
          </mxGeometry>
        </mxCell>
        <mxCell id="MsgvqJ762t6YQcJP-yqz-37" value="" style="curved=1;endArrow=classic;html=1;rounded=0;exitX=0;exitY=1;exitDx=0;exitDy=0;entryX=0;entryY=0;entryDx=0;entryDy=0;" parent="1" edge="1">
          <mxGeometry width="50" height="50" relative="1" as="geometry">
            <mxPoint x="394" y="857.9999999999995" as="sourcePoint" />
            <mxPoint x="394" y="789.9999999999995" as="targetPoint" />
            <Array as="points">
              <mxPoint x="423" y="828.9999999999995" />
            </Array>
          </mxGeometry>
        </mxCell>
        <mxCell id="MsgvqJ762t6YQcJP-yqz-38" value="\ , &quot;" style="edgeLabel;html=1;align=left;verticalAlign=middle;resizable=0;points=[];" parent="MsgvqJ762t6YQcJP-yqz-37" vertex="1" connectable="0">
          <mxGeometry x="0.1309" y="7" relative="1" as="geometry">
            <mxPoint as="offset" />
          </mxGeometry>
        </mxCell>
        <mxCell id="kHz1uulD1xR3vWpID-sE-1" value="整数与浮点数" style="text;strokeColor=none;fillColor=none;align=left;verticalAlign=middle;spacingLeft=4;spacingRight=4;overflow=hidden;points=[[0,0.5],[1,0.5]];portConstraint=eastwest;rotatable=0;whiteSpace=wrap;html=1;fontSize=18;fontFamily=Helvetica;" parent="1" vertex="1">
          <mxGeometry x="40" y="960" width="260" height="30" as="geometry" />
        </mxCell>
        <mxCell id="kHz1uulD1xR3vWpID-sE-2" value="001" style="shape=ellipse;html=1;dashed=0;whiteSpace=wrap;aspect=fixed;perimeter=ellipsePerimeter;" parent="1" vertex="1">
          <mxGeometry x="150" y="1100" width="60" height="60" as="geometry" />
        </mxCell>
        <mxCell id="kHz1uulD1xR3vWpID-sE-3" value="" style="endArrow=classic;html=1;rounded=0;entryX=0;entryY=0.5;entryDx=0;entryDy=0;" parent="1" target="kHz1uulD1xR3vWpID-sE-2" edge="1">
          <mxGeometry width="50" height="50" relative="1" as="geometry">
            <mxPoint x="110" y="1130" as="sourcePoint" />
            <mxPoint x="60" y="1120" as="targetPoint" />
          </mxGeometry>
        </mxCell>
        <mxCell id="kHz1uulD1xR3vWpID-sE-4" value="start" style="edgeLabel;html=1;align=right;verticalAlign=middle;resizable=0;points=[];fontSize=16;spacingLeft=0;spacingRight=27;" parent="kHz1uulD1xR3vWpID-sE-3" vertex="1" connectable="0">
          <mxGeometry x="-0.3714" y="1" relative="1" as="geometry">
            <mxPoint as="offset" />
          </mxGeometry>
        </mxCell>
        <mxCell id="kHz1uulD1xR3vWpID-sE-5" value="601" style="shape=ellipse;html=1;dashed=0;whiteSpace=wrap;aspect=fixed;perimeter=ellipsePerimeter;" parent="1" vertex="1">
          <mxGeometry x="300" y="1100" width="60" height="60" as="geometry" />
        </mxCell>
        <mxCell id="kHz1uulD1xR3vWpID-sE-6" value="" style="endArrow=classic;html=1;rounded=0;exitX=1;exitY=0.5;exitDx=0;exitDy=0;" parent="1" source="kHz1uulD1xR3vWpID-sE-2" edge="1">
          <mxGeometry width="50" height="50" relative="1" as="geometry">
            <mxPoint x="250" y="1140" as="sourcePoint" />
            <mxPoint x="300" y="1130" as="targetPoint" />
          </mxGeometry>
        </mxCell>
        <mxCell id="kHz1uulD1xR3vWpID-sE-7" value="+, -" style="edgeLabel;html=1;align=center;verticalAlign=bottom;resizable=0;points=[];fontSize=16;" parent="kHz1uulD1xR3vWpID-sE-6" vertex="1" connectable="0">
          <mxGeometry x="0.0444" y="1" relative="1" as="geometry">
            <mxPoint as="offset" />
          </mxGeometry>
        </mxCell>
        <mxCell id="kHz1uulD1xR3vWpID-sE-11" value="" style="curved=1;endArrow=classic;html=1;rounded=0;" parent="1" edge="1">
          <mxGeometry width="50" height="50" relative="1" as="geometry">
            <mxPoint x="175" y="1100" as="sourcePoint" />
            <mxPoint x="185" y="1100" as="targetPoint" />
            <Array as="points">
              <mxPoint x="170" y="1080" />
              <mxPoint x="180" y="1060" />
              <mxPoint x="190" y="1080" />
            </Array>
          </mxGeometry>
        </mxCell>
        <mxCell id="kHz1uulD1xR3vWpID-sE-12" value="&lt;font style=&quot;font-size: 16px;&quot;&gt;space,&lt;br&gt;\t, \n, \r&lt;/font&gt;" style="edgeLabel;html=1;align=center;verticalAlign=middle;resizable=0;points=[];" parent="kHz1uulD1xR3vWpID-sE-11" vertex="1" connectable="0">
          <mxGeometry x="-0.1093" y="-2" relative="1" as="geometry">
            <mxPoint y="-21" as="offset" />
          </mxGeometry>
        </mxCell>
        <mxCell id="kHz1uulD1xR3vWpID-sE-13" value="" style="curved=1;endArrow=classic;html=1;rounded=0;" parent="1" edge="1">
          <mxGeometry width="50" height="50" relative="1" as="geometry">
            <mxPoint x="475" y="1100" as="sourcePoint" />
            <mxPoint x="485" y="1100" as="targetPoint" />
            <Array as="points">
              <mxPoint x="470" y="1080" />
              <mxPoint x="480" y="1060" />
              <mxPoint x="490" y="1080" />
            </Array>
          </mxGeometry>
        </mxCell>
        <mxCell id="kHz1uulD1xR3vWpID-sE-14" value="&lt;span style=&quot;font-size: 16px;&quot;&gt;digit&lt;/span&gt;" style="edgeLabel;html=1;align=center;verticalAlign=middle;resizable=0;points=[];" parent="kHz1uulD1xR3vWpID-sE-13" vertex="1" connectable="0">
          <mxGeometry x="-0.1093" y="-2" relative="1" as="geometry">
            <mxPoint y="-17" as="offset" />
          </mxGeometry>
        </mxCell>
        <mxCell id="kHz1uulD1xR3vWpID-sE-18" value="" style="endArrow=classic;html=1;rounded=0;exitX=1;exitY=0.5;exitDx=0;exitDy=0;entryX=0;entryY=0.5;entryDx=0;entryDy=0;" parent="1" target="kHz1uulD1xR3vWpID-sE-20" edge="1">
          <mxGeometry width="50" height="50" relative="1" as="geometry">
            <mxPoint x="510" y="1130" as="sourcePoint" />
            <mxPoint x="600" y="1284.92" as="targetPoint" />
          </mxGeometry>
        </mxCell>
        <mxCell id="kHz1uulD1xR3vWpID-sE-19" value="non-digit" style="edgeLabel;html=1;align=center;verticalAlign=bottom;resizable=0;points=[];fontSize=16;" parent="kHz1uulD1xR3vWpID-sE-18" vertex="1" connectable="0">
          <mxGeometry x="0.0444" y="1" relative="1" as="geometry">
            <mxPoint x="-6" as="offset" />
          </mxGeometry>
        </mxCell>
        <mxCell id="kHz1uulD1xR3vWpID-sE-20" value="603" style="ellipse;shape=doubleEllipse;html=1;dashed=0;whiteSpace=wrap;aspect=fixed;" parent="1" vertex="1">
          <mxGeometry x="600" y="1100" width="60" height="60" as="geometry" />
        </mxCell>
        <mxCell id="m8gMNXp1yhDJ-ukcLH94-1" value="602" style="shape=ellipse;html=1;dashed=0;whiteSpace=wrap;aspect=fixed;perimeter=ellipsePerimeter;" parent="1" vertex="1">
          <mxGeometry x="450" y="1100" width="60" height="60" as="geometry" />
        </mxCell>
        <mxCell id="m8gMNXp1yhDJ-ukcLH94-2" value="" style="endArrow=classic;html=1;rounded=0;exitX=1;exitY=0.5;exitDx=0;exitDy=0;entryX=0;entryY=0.5;entryDx=0;entryDy=0;" parent="1" edge="1">
          <mxGeometry width="50" height="50" relative="1" as="geometry">
            <mxPoint x="360" y="1129.5" as="sourcePoint" />
            <mxPoint x="450" y="1129.5" as="targetPoint" />
          </mxGeometry>
        </mxCell>
        <mxCell id="m8gMNXp1yhDJ-ukcLH94-3" value="digit" style="edgeLabel;html=1;align=center;verticalAlign=bottom;resizable=0;points=[];fontSize=16;" parent="m8gMNXp1yhDJ-ukcLH94-2" vertex="1" connectable="0">
          <mxGeometry x="0.0444" y="1" relative="1" as="geometry">
            <mxPoint as="offset" />
          </mxGeometry>
        </mxCell>
        <mxCell id="m8gMNXp1yhDJ-ukcLH94-5" value="" style="curved=1;endArrow=classic;html=1;rounded=0;exitX=1;exitY=0;exitDx=0;exitDy=0;entryX=0;entryY=0;entryDx=0;entryDy=0;" parent="1" source="kHz1uulD1xR3vWpID-sE-2" target="m8gMNXp1yhDJ-ukcLH94-1" edge="1">
          <mxGeometry width="50" height="50" relative="1" as="geometry">
            <mxPoint x="330" y="955" as="sourcePoint" />
            <mxPoint x="330" y="1023" as="targetPoint" />
            <Array as="points">
              <mxPoint x="330" y="1030" />
            </Array>
          </mxGeometry>
        </mxCell>
        <mxCell id="m8gMNXp1yhDJ-ukcLH94-8" value="&lt;font style=&quot;font-size: 16px;&quot;&gt;digit&lt;/font&gt;" style="edgeLabel;html=1;align=center;verticalAlign=middle;resizable=0;points=[];" parent="m8gMNXp1yhDJ-ukcLH94-5" vertex="1" connectable="0">
          <mxGeometry x="-0.1392" y="-31" relative="1" as="geometry">
            <mxPoint y="-13" as="offset" />
          </mxGeometry>
        </mxCell>
        <mxCell id="m8gMNXp1yhDJ-ukcLH94-9" value="606" style="shape=ellipse;html=1;dashed=0;whiteSpace=wrap;aspect=fixed;perimeter=ellipsePerimeter;" parent="1" vertex="1">
          <mxGeometry x="600" y="1310" width="60" height="60" as="geometry" />
        </mxCell>
        <mxCell id="m8gMNXp1yhDJ-ukcLH94-12" value="605" style="shape=ellipse;html=1;dashed=0;whiteSpace=wrap;aspect=fixed;perimeter=ellipsePerimeter;" parent="1" vertex="1">
          <mxGeometry x="800" y="1200" width="60" height="60" as="geometry" />
        </mxCell>
        <mxCell id="m8gMNXp1yhDJ-ukcLH94-16" value="604" style="shape=ellipse;html=1;dashed=0;whiteSpace=wrap;aspect=fixed;perimeter=ellipsePerimeter;" parent="1" vertex="1">
          <mxGeometry x="600" y="1200" width="60" height="60" as="geometry" />
        </mxCell>
        <mxCell id="m8gMNXp1yhDJ-ukcLH94-21" value="" style="curved=1;endArrow=classic;html=1;rounded=0;" parent="1" edge="1">
          <mxGeometry width="50" height="50" relative="1" as="geometry">
            <mxPoint x="625" y="1370" as="sourcePoint" />
            <mxPoint x="635" y="1370" as="targetPoint" />
            <Array as="points">
              <mxPoint x="620" y="1390" />
              <mxPoint x="630" y="1410" />
              <mxPoint x="640" y="1390" />
            </Array>
          </mxGeometry>
        </mxCell>
        <mxCell id="m8gMNXp1yhDJ-ukcLH94-22" value="&lt;span style=&quot;font-size: 16px;&quot;&gt;digit&lt;/span&gt;" style="edgeLabel;html=1;align=center;verticalAlign=middle;resizable=0;points=[];" parent="m8gMNXp1yhDJ-ukcLH94-21" vertex="1" connectable="0">
          <mxGeometry x="-0.1093" y="-2" relative="1" as="geometry">
            <mxPoint x="4" y="11" as="offset" />
          </mxGeometry>
        </mxCell>
        <mxCell id="m8gMNXp1yhDJ-ukcLH94-25" value="" style="endArrow=classic;html=1;rounded=0;exitX=1;exitY=0.5;exitDx=0;exitDy=0;entryX=0;entryY=0.5;entryDx=0;entryDy=0;" parent="1" target="m8gMNXp1yhDJ-ukcLH94-12" edge="1">
          <mxGeometry width="50" height="50" relative="1" as="geometry">
            <mxPoint x="660" y="1230" as="sourcePoint" />
            <mxPoint x="730" y="1230" as="targetPoint" />
          </mxGeometry>
        </mxCell>
        <mxCell id="m8gMNXp1yhDJ-ukcLH94-26" value="digit, +, -" style="edgeLabel;html=1;align=center;verticalAlign=bottom;resizable=0;points=[];fontSize=16;" parent="m8gMNXp1yhDJ-ukcLH94-25" vertex="1" connectable="0">
          <mxGeometry x="0.0444" y="1" relative="1" as="geometry">
            <mxPoint as="offset" />
          </mxGeometry>
        </mxCell>
        <mxCell id="m8gMNXp1yhDJ-ukcLH94-28" value="" style="endArrow=classic;html=1;rounded=0;exitX=1;exitY=0.5;exitDx=0;exitDy=0;entryX=0;entryY=0.5;entryDx=0;entryDy=0;" parent="1" target="m8gMNXp1yhDJ-ukcLH94-35" edge="1">
          <mxGeometry width="50" height="50" relative="1" as="geometry">
            <mxPoint x="660" y="1339.5" as="sourcePoint" />
            <mxPoint x="800" y="1340" as="targetPoint" />
          </mxGeometry>
        </mxCell>
        <mxCell id="m8gMNXp1yhDJ-ukcLH94-29" value="character that are&lt;br&gt;not digit, E, e" style="edgeLabel;html=1;align=center;verticalAlign=bottom;resizable=0;points=[];fontSize=16;" parent="m8gMNXp1yhDJ-ukcLH94-28" vertex="1" connectable="0">
          <mxGeometry x="0.0444" y="1" relative="1" as="geometry">
            <mxPoint x="-8" y="-2" as="offset" />
          </mxGeometry>
        </mxCell>
        <mxCell id="m8gMNXp1yhDJ-ukcLH94-30" value="" style="endArrow=classic;html=1;rounded=0;" parent="1" edge="1">
          <mxGeometry width="50" height="50" relative="1" as="geometry">
            <mxPoint x="630" y="1310" as="sourcePoint" />
            <mxPoint x="630" y="1260" as="targetPoint" />
          </mxGeometry>
        </mxCell>
        <mxCell id="m8gMNXp1yhDJ-ukcLH94-31" value="E, e" style="edgeLabel;html=1;align=center;verticalAlign=bottom;resizable=0;points=[];fontSize=16;" parent="m8gMNXp1yhDJ-ukcLH94-30" vertex="1" connectable="0">
          <mxGeometry x="0.0444" y="1" relative="1" as="geometry">
            <mxPoint x="18" y="15" as="offset" />
          </mxGeometry>
        </mxCell>
        <mxCell id="m8gMNXp1yhDJ-ukcLH94-33" value="" style="curved=1;endArrow=classic;html=1;rounded=0;" parent="1" edge="1">
          <mxGeometry width="50" height="50" relative="1" as="geometry">
            <mxPoint x="825" y="1200" as="sourcePoint" />
            <mxPoint x="835" y="1200" as="targetPoint" />
            <Array as="points">
              <mxPoint x="820" y="1180" />
              <mxPoint x="830" y="1160" />
              <mxPoint x="840" y="1180" />
            </Array>
          </mxGeometry>
        </mxCell>
        <mxCell id="m8gMNXp1yhDJ-ukcLH94-34" value="&lt;span style=&quot;font-size: 16px;&quot;&gt;digit&lt;/span&gt;" style="edgeLabel;html=1;align=center;verticalAlign=middle;resizable=0;points=[];" parent="m8gMNXp1yhDJ-ukcLH94-33" vertex="1" connectable="0">
          <mxGeometry x="-0.1093" y="-2" relative="1" as="geometry">
            <mxPoint y="-16" as="offset" />
          </mxGeometry>
        </mxCell>
        <mxCell id="m8gMNXp1yhDJ-ukcLH94-35" value="607" style="ellipse;shape=doubleEllipse;html=1;dashed=0;whiteSpace=wrap;aspect=fixed;" parent="1" vertex="1">
          <mxGeometry x="800" y="1310" width="60" height="60" as="geometry" />
        </mxCell>
        <mxCell id="m8gMNXp1yhDJ-ukcLH94-36" value="" style="endArrow=classic;html=1;rounded=0;exitX=0.5;exitY=1;exitDx=0;exitDy=0;entryX=0.5;entryY=0;entryDx=0;entryDy=0;" parent="1" source="m8gMNXp1yhDJ-ukcLH94-12" target="m8gMNXp1yhDJ-ukcLH94-35" edge="1">
          <mxGeometry width="50" height="50" relative="1" as="geometry">
            <mxPoint x="860" y="1229.5" as="sourcePoint" />
            <mxPoint x="950" y="1229.5" as="targetPoint" />
          </mxGeometry>
        </mxCell>
        <mxCell id="m8gMNXp1yhDJ-ukcLH94-37" value="non-digit" style="edgeLabel;html=1;align=center;verticalAlign=bottom;resizable=0;points=[];fontSize=16;" parent="m8gMNXp1yhDJ-ukcLH94-36" vertex="1" connectable="0">
          <mxGeometry x="0.0444" y="1" relative="1" as="geometry">
            <mxPoint x="35" y="9" as="offset" />
          </mxGeometry>
        </mxCell>
        <mxCell id="m8gMNXp1yhDJ-ukcLH94-38" value="&lt;font style=&quot;font-size: 16px;&quot;&gt;integer&lt;/font&gt;" style="whiteSpace=wrap;html=1;shape=mxgraph.basic.rectCallout;dx=30;dy=15;boundedLbl=1;" parent="1" vertex="1">
          <mxGeometry x="640" y="1050" width="100" height="60" as="geometry" />
        </mxCell>
        <mxCell id="m8gMNXp1yhDJ-ukcLH94-39" value="&lt;font style=&quot;font-size: 16px;&quot;&gt;fractional&lt;/font&gt;" style="whiteSpace=wrap;html=1;shape=mxgraph.basic.rectCallout;dx=30;dy=15;boundedLbl=1;flipV=1;" parent="1" vertex="1">
          <mxGeometry x="845" y="1360" width="100" height="60" as="geometry" />
        </mxCell>
        <mxCell id="m8gMNXp1yhDJ-ukcLH94-40" value="" style="endArrow=classic;html=1;rounded=0;exitX=0.5;exitY=1;exitDx=0;exitDy=0;entryX=0;entryY=0.5;entryDx=0;entryDy=0;" parent="1" source="m8gMNXp1yhDJ-ukcLH94-1" target="m8gMNXp1yhDJ-ukcLH94-16" edge="1">
          <mxGeometry width="50" height="50" relative="1" as="geometry">
            <mxPoint x="500" y="1170" as="sourcePoint" />
            <mxPoint x="560" y="1270" as="targetPoint" />
            <Array as="points">
              <mxPoint x="480" y="1230" />
            </Array>
          </mxGeometry>
        </mxCell>
        <mxCell id="m8gMNXp1yhDJ-ukcLH94-41" value="E, e" style="edgeLabel;html=1;align=center;verticalAlign=bottom;resizable=0;points=[];fontSize=16;" parent="m8gMNXp1yhDJ-ukcLH94-40" vertex="1" connectable="0">
          <mxGeometry x="0.0444" y="1" relative="1" as="geometry">
            <mxPoint x="26" as="offset" />
          </mxGeometry>
        </mxCell>
        <mxCell id="m8gMNXp1yhDJ-ukcLH94-42" value="" style="endArrow=classic;html=1;rounded=0;entryX=0;entryY=0.5;entryDx=0;entryDy=0;" parent="1" target="m8gMNXp1yhDJ-ukcLH94-9" edge="1">
          <mxGeometry width="50" height="50" relative="1" as="geometry">
            <mxPoint x="480" y="1230" as="sourcePoint" />
            <mxPoint x="600" y="1320" as="targetPoint" />
            <Array as="points">
              <mxPoint x="480" y="1340" />
            </Array>
          </mxGeometry>
        </mxCell>
        <mxCell id="m8gMNXp1yhDJ-ukcLH94-43" value="decimal point" style="edgeLabel;html=1;align=center;verticalAlign=bottom;resizable=0;points=[];fontSize=16;" parent="m8gMNXp1yhDJ-ukcLH94-42" vertex="1" connectable="0">
          <mxGeometry x="0.0444" y="1" relative="1" as="geometry">
            <mxPoint x="45" as="offset" />
          </mxGeometry>
        </mxCell>
        <mxCell id="m8gMNXp1yhDJ-ukcLH94-44" value="301" style="shape=ellipse;html=1;dashed=0;whiteSpace=wrap;aspect=fixed;perimeter=ellipsePerimeter;" parent="1" vertex="1">
          <mxGeometry x="300" y="440" width="60" height="60" as="geometry" />
        </mxCell>
        <mxCell id="m8gMNXp1yhDJ-ukcLH94-45" value="" style="endArrow=classic;html=1;rounded=0;exitX=1;exitY=0.5;exitDx=0;exitDy=0;" parent="1" edge="1">
          <mxGeometry width="50" height="50" relative="1" as="geometry">
            <mxPoint x="360" y="469.5" as="sourcePoint" />
            <mxPoint x="410" y="470" as="targetPoint" />
          </mxGeometry>
        </mxCell>
        <mxCell id="m8gMNXp1yhDJ-ukcLH94-51" value="界符" style="text;strokeColor=none;fillColor=none;align=left;verticalAlign=middle;spacingLeft=4;spacingRight=4;overflow=hidden;points=[[0,0.5],[1,0.5]];portConstraint=eastwest;rotatable=0;whiteSpace=wrap;html=1;fontSize=18;fontFamily=Helvetica;" parent="1" vertex="1">
          <mxGeometry x="580" y="330" width="180" height="30" as="geometry" />
        </mxCell>
        <mxCell id="m8gMNXp1yhDJ-ukcLH94-62" value="001" style="shape=ellipse;html=1;dashed=0;whiteSpace=wrap;aspect=fixed;perimeter=ellipsePerimeter;" parent="1" vertex="1">
          <mxGeometry x="730" y="440" width="60" height="60" as="geometry" />
        </mxCell>
        <mxCell id="m8gMNXp1yhDJ-ukcLH94-63" value="" style="endArrow=classic;html=1;rounded=0;entryX=0;entryY=0.5;entryDx=0;entryDy=0;" parent="1" target="m8gMNXp1yhDJ-ukcLH94-62" edge="1">
          <mxGeometry width="50" height="50" relative="1" as="geometry">
            <mxPoint x="660" y="470" as="sourcePoint" />
            <mxPoint x="640" y="460" as="targetPoint" />
          </mxGeometry>
        </mxCell>
        <mxCell id="m8gMNXp1yhDJ-ukcLH94-64" value="start" style="edgeLabel;html=1;align=right;verticalAlign=middle;resizable=0;points=[];fontSize=16;spacingLeft=0;spacingRight=27;" parent="m8gMNXp1yhDJ-ukcLH94-63" vertex="1" connectable="0">
          <mxGeometry x="-0.3714" y="1" relative="1" as="geometry">
            <mxPoint as="offset" />
          </mxGeometry>
        </mxCell>
        <mxCell id="m8gMNXp1yhDJ-ukcLH94-65" value="" style="endArrow=classic;html=1;rounded=0;exitX=1;exitY=0.5;exitDx=0;exitDy=0;" parent="1" source="m8gMNXp1yhDJ-ukcLH94-62" edge="1">
          <mxGeometry width="50" height="50" relative="1" as="geometry">
            <mxPoint x="830" y="480" as="sourcePoint" />
            <mxPoint x="840" y="470" as="targetPoint" />
          </mxGeometry>
        </mxCell>
        <mxCell id="m8gMNXp1yhDJ-ukcLH94-66" value="[" style="edgeLabel;html=1;align=center;verticalAlign=bottom;resizable=0;points=[];fontSize=16;" parent="m8gMNXp1yhDJ-ukcLH94-65" vertex="1" connectable="0">
          <mxGeometry x="0.0444" y="1" relative="1" as="geometry">
            <mxPoint x="-6" as="offset" />
          </mxGeometry>
        </mxCell>
        <mxCell id="m8gMNXp1yhDJ-ukcLH94-67" value="402" style="ellipse;shape=doubleEllipse;html=1;dashed=0;whiteSpace=wrap;aspect=fixed;" parent="1" vertex="1">
          <mxGeometry x="950" y="440" width="60" height="60" as="geometry" />
        </mxCell>
        <mxCell id="m8gMNXp1yhDJ-ukcLH94-68" value="" style="curved=1;endArrow=classic;html=1;rounded=0;" parent="1" edge="1">
          <mxGeometry width="50" height="50" relative="1" as="geometry">
            <mxPoint x="755" y="440" as="sourcePoint" />
            <mxPoint x="765" y="440" as="targetPoint" />
            <Array as="points">
              <mxPoint x="750" y="420" />
              <mxPoint x="760" y="400" />
              <mxPoint x="770" y="420" />
            </Array>
          </mxGeometry>
        </mxCell>
        <mxCell id="m8gMNXp1yhDJ-ukcLH94-69" value="&lt;font style=&quot;font-size: 16px;&quot;&gt;space,&lt;br&gt;\t, \n, \r&lt;/font&gt;" style="edgeLabel;html=1;align=center;verticalAlign=middle;resizable=0;points=[];" parent="m8gMNXp1yhDJ-ukcLH94-68" vertex="1" connectable="0">
          <mxGeometry x="-0.1093" y="-2" relative="1" as="geometry">
            <mxPoint y="-21" as="offset" />
          </mxGeometry>
        </mxCell>
        <mxCell id="m8gMNXp1yhDJ-ukcLH94-70" value="401" style="shape=ellipse;html=1;dashed=0;whiteSpace=wrap;aspect=fixed;perimeter=ellipsePerimeter;" parent="1" vertex="1">
          <mxGeometry x="840" y="440" width="60" height="60" as="geometry" />
        </mxCell>
        <mxCell id="m8gMNXp1yhDJ-ukcLH94-71" value="" style="endArrow=classic;html=1;rounded=0;exitX=1;exitY=0.5;exitDx=0;exitDy=0;" parent="1" edge="1">
          <mxGeometry width="50" height="50" relative="1" as="geometry">
            <mxPoint x="900" y="469.5" as="sourcePoint" />
            <mxPoint x="950" y="470" as="targetPoint" />
          </mxGeometry>
        </mxCell>
        <mxCell id="m8gMNXp1yhDJ-ukcLH94-72" value="" style="endArrow=classic;html=1;rounded=0;exitX=0.5;exitY=1;exitDx=0;exitDy=0;entryX=0;entryY=0.5;entryDx=0;entryDy=0;" parent="1" target="m8gMNXp1yhDJ-ukcLH94-75" edge="1">
          <mxGeometry width="50" height="50" relative="1" as="geometry">
            <mxPoint x="760" y="500" as="sourcePoint" />
            <mxPoint x="880" y="570" as="targetPoint" />
            <Array as="points">
              <mxPoint x="760" y="550" />
            </Array>
          </mxGeometry>
        </mxCell>
        <mxCell id="m8gMNXp1yhDJ-ukcLH94-73" value="]" style="edgeLabel;html=1;align=center;verticalAlign=bottom;resizable=0;points=[];fontSize=16;" parent="m8gMNXp1yhDJ-ukcLH94-72" vertex="1" connectable="0">
          <mxGeometry x="0.0444" y="1" relative="1" as="geometry">
            <mxPoint x="32" as="offset" />
          </mxGeometry>
        </mxCell>
        <mxCell id="m8gMNXp1yhDJ-ukcLH94-74" value="404" style="ellipse;shape=doubleEllipse;html=1;dashed=0;whiteSpace=wrap;aspect=fixed;" parent="1" vertex="1">
          <mxGeometry x="950" y="520" width="60" height="60" as="geometry" />
        </mxCell>
        <mxCell id="m8gMNXp1yhDJ-ukcLH94-75" value="403" style="shape=ellipse;html=1;dashed=0;whiteSpace=wrap;aspect=fixed;perimeter=ellipsePerimeter;" parent="1" vertex="1">
          <mxGeometry x="840" y="520" width="60" height="60" as="geometry" />
        </mxCell>
        <mxCell id="m8gMNXp1yhDJ-ukcLH94-76" value="" style="endArrow=classic;html=1;rounded=0;exitX=1;exitY=0.5;exitDx=0;exitDy=0;" parent="1" edge="1">
          <mxGeometry width="50" height="50" relative="1" as="geometry">
            <mxPoint x="900" y="549.5" as="sourcePoint" />
            <mxPoint x="950" y="550" as="targetPoint" />
          </mxGeometry>
        </mxCell>
        <mxCell id="m8gMNXp1yhDJ-ukcLH94-77" value="406" style="ellipse;shape=doubleEllipse;html=1;dashed=0;whiteSpace=wrap;aspect=fixed;" parent="1" vertex="1">
          <mxGeometry x="950" y="600" width="60" height="60" as="geometry" />
        </mxCell>
        <mxCell id="m8gMNXp1yhDJ-ukcLH94-78" value="405" style="shape=ellipse;html=1;dashed=0;whiteSpace=wrap;aspect=fixed;perimeter=ellipsePerimeter;" parent="1" vertex="1">
          <mxGeometry x="840" y="600" width="60" height="60" as="geometry" />
        </mxCell>
        <mxCell id="m8gMNXp1yhDJ-ukcLH94-79" value="" style="endArrow=classic;html=1;rounded=0;exitX=1;exitY=0.5;exitDx=0;exitDy=0;" parent="1" edge="1">
          <mxGeometry width="50" height="50" relative="1" as="geometry">
            <mxPoint x="900" y="629.5" as="sourcePoint" />
            <mxPoint x="950" y="630" as="targetPoint" />
          </mxGeometry>
        </mxCell>
        <mxCell id="m8gMNXp1yhDJ-ukcLH94-80" value="" style="endArrow=classic;html=1;rounded=0;exitX=0.5;exitY=1;exitDx=0;exitDy=0;entryX=0;entryY=0.5;entryDx=0;entryDy=0;" parent="1" target="m8gMNXp1yhDJ-ukcLH94-78" edge="1">
          <mxGeometry width="50" height="50" relative="1" as="geometry">
            <mxPoint x="760" y="550" as="sourcePoint" />
            <mxPoint x="840" y="600" as="targetPoint" />
            <Array as="points">
              <mxPoint x="760" y="630" />
            </Array>
          </mxGeometry>
        </mxCell>
        <mxCell id="m8gMNXp1yhDJ-ukcLH94-81" value="," style="edgeLabel;html=1;align=center;verticalAlign=bottom;resizable=0;points=[];fontSize=16;" parent="m8gMNXp1yhDJ-ukcLH94-80" vertex="1" connectable="0">
          <mxGeometry x="0.0444" y="1" relative="1" as="geometry">
            <mxPoint x="45" as="offset" />
          </mxGeometry>
        </mxCell>
      </root>
    </mxGraphModel>
  </diagram>
</mxfile>
